<svg xmlns="http://www.w3.org/2000/svg" viewBox="0 0 511.42 472"><defs><style>.cls-1{fill:#c00;}.cls-2{fill:#e60000;}.cls-3{fill:#ff3939;}.cls-4{fill:#ffaeae;}</style></defs><g id="Layer_2" data-name="Layer 2"><g id="heart"><polygon class="cls-1" points="511.42 196.66 511.42 235.98 472.3 235.98 472.1 235.98 472.1 196.66 511.42 196.66"/><rect class="cls-1" x="472.1" y="157.31" width="39.32" height="39.35"/><rect class="cls-1" x="472.1" y="117.99" width="39.32" height="39.32"/><rect class="cls-1" x="472.1" y="78.63" width="39.32" height="39.36"/><polygon class="cls-1" points="472.3 235.98 472.3 275.33 432.98 275.33 432.98 235.98 472.1 235.98 472.3 235.98"/><polygon class="cls-2" points="472.1 196.66 472.1 235.98 432.98 235.98 432.75 235.98 432.75 196.66 472.1 196.66"/><rect class="cls-2" x="432.75" y="157.31" width="39.35" height="39.35"/><rect class="cls-2" x="432.75" y="117.99" width="39.35" height="39.32"/><rect class="cls-2" x="432.75" y="78.63" width="39.35" height="39.36"/><rect class="cls-1" x="432.75" y="39.31" width="39.35" height="39.31"/><rect class="cls-1" x="393.63" y="275.33" width="39.35" height="39.32"/><polygon class="cls-2" points="432.98 235.98 432.98 275.33 393.63 275.33 393.63 235.98 432.75 235.98 432.98 235.98"/><polygon class="cls-2" points="432.75 196.66 432.75 235.98 393.63 235.98 393.43 235.98 393.43 196.66 432.75 196.66"/><rect class="cls-2" x="393.43" y="157.31" width="39.32" height="39.35"/><rect class="cls-2" x="393.43" y="117.99" width="39.32" height="39.32"/><rect class="cls-2" x="393.43" y="78.63" width="39.32" height="39.36"/><rect class="cls-2" x="393.43" y="39.31" width="39.32" height="39.31"/><rect class="cls-1" x="393.43" width="39.32" height="39.31"/><rect class="cls-1" x="354.31" y="314.65" width="39.32" height="39.31"/><rect class="cls-2" x="354.31" y="275.33" width="39.32" height="39.32"/><polygon class="cls-2" points="393.63 235.98 393.63 275.33 354.31 275.33 354.31 235.98 393.43 235.98 393.63 235.98"/><polygon class="cls-3" points="393.43 196.66 393.43 235.98 354.31 235.98 354.12 235.98 354.12 196.66 393.43 196.66"/><rect class="cls-3" x="354.12" y="157.31" width="39.32" height="39.35"/><rect class="cls-3" x="354.12" y="117.99" width="39.32" height="39.32"/><rect class="cls-3" x="354.12" y="78.63" width="39.32" height="39.36"/><rect class="cls-2" x="354.12" y="39.31" width="39.32" height="39.31"/><rect class="cls-1" x="354.12" width="39.32" height="39.31"/><rect class="cls-1" x="314.96" y="353.97" width="39.35" height="39.36"/><rect class="cls-2" x="314.96" y="314.65" width="39.35" height="39.31"/><rect class="cls-2" x="314.96" y="275.33" width="39.35" height="39.32"/><polygon class="cls-3" points="354.31 235.98 354.31 275.33 314.96 275.33 314.96 235.98 354.12 235.98 354.31 235.98"/><polygon class="cls-3" points="354.12 196.66 354.12 235.98 314.96 235.98 314.76 235.98 314.76 196.66 354.12 196.66"/><rect class="cls-3" x="314.76" y="157.31" width="39.36" height="39.35"/><rect class="cls-3" x="314.76" y="117.99" width="39.36" height="39.32"/><rect class="cls-3" x="314.76" y="78.63" width="39.36" height="39.36"/><rect class="cls-1" x="314.76" y="39.31" width="39.36" height="39.31"/><rect class="cls-1" x="275.63" y="393.33" width="39.32" height="39.32"/><rect class="cls-2" x="275.63" y="353.97" width="39.32" height="39.36"/><rect class="cls-2" x="275.63" y="314.65" width="39.32" height="39.31"/><rect class="cls-3" x="275.63" y="275.33" width="39.32" height="39.32"/><polygon class="cls-3" points="314.96 235.98 314.96 275.33 275.63 275.33 275.63 235.98 314.76 235.98 314.96 235.98"/><polygon class="cls-3" points="314.76 196.66 314.76 235.98 275.63 235.98 275.52 235.98 275.44 235.98 275.44 196.66 314.76 196.66"/><rect class="cls-3" x="275.44" y="157.31" width="39.32" height="39.35"/><rect class="cls-3" x="275.44" y="117.99" width="39.32" height="39.32"/><rect class="cls-1" x="275.44" y="78.63" width="39.32" height="39.36"/><rect class="cls-1" x="236.21" y="432.65" width="39.31" height="39.35"/><rect class="cls-2" x="236.21" y="393.33" width="39.31" height="39.32"/><rect class="cls-2" x="236.21" y="353.97" width="39.31" height="39.36"/><rect class="cls-3" x="236.21" y="314.65" width="39.31" height="39.31"/><rect class="cls-3" x="236.21" y="275.33" width="39.31" height="39.32"/><polygon class="cls-3" points="275.52 235.98 275.52 275.33 236.21 275.33 236.21 235.98 275.33 235.98 275.44 235.98 275.52 235.98"/><polygon class="cls-3" points="275.33 196.66 275.33 235.98 236.21 235.98 236.01 235.98 236.01 196.66 275.33 196.66"/><rect class="cls-3" x="236.01" y="157.31" width="39.32" height="39.35"/><rect class="cls-1" x="236.01" y="117.99" width="39.32" height="39.32"/><rect class="cls-1" x="196.89" y="393.33" width="39.32" height="39.32"/><rect class="cls-2" x="196.89" y="353.97" width="39.32" height="39.36"/><rect class="cls-3" x="196.89" y="314.65" width="39.32" height="39.31"/><rect class="cls-3" x="196.89" y="275.33" width="39.32" height="39.32"/><polygon class="cls-3" points="236.21 235.98 236.21 275.33 196.89 275.33 196.89 235.98 236.01 235.98 236.21 235.98"/><polygon class="cls-3" points="236.01 196.66 236.01 235.98 196.89 235.98 196.66 235.98 196.66 196.66 236.01 196.66"/><rect class="cls-3" x="196.66" y="157.31" width="39.35" height="39.35"/><rect class="cls-2" x="196.66" y="117.99" width="39.35" height="39.32"/><rect class="cls-1" x="196.66" y="78.63" width="39.35" height="39.36"/><rect class="cls-1" x="157.53" y="353.97" width="39.36" height="39.36"/><rect class="cls-2" x="157.53" y="314.65" width="39.36" height="39.31"/><rect class="cls-3" x="157.53" y="275.33" width="39.36" height="39.32"/><polygon class="cls-3" points="196.89 235.98 196.89 275.33 157.53 275.33 157.53 235.98 196.66 235.98 196.89 235.98"/><polygon class="cls-3" points="196.66 196.66 196.66 235.98 157.53 235.98 157.34 235.98 157.34 196.66 196.66 196.66"/><rect class="cls-3" x="157.34" y="157.31" width="39.32" height="39.35"/><rect class="cls-3" x="157.34" y="117.99" width="39.32" height="39.32"/><rect class="cls-2" x="157.34" y="78.63" width="39.32" height="39.36"/><rect class="cls-1" x="157.34" y="39.31" width="39.32" height="39.31"/><rect class="cls-1" x="118.21" y="314.65" width="39.32" height="39.31"/><rect class="cls-2" x="118.21" y="275.33" width="39.32" height="39.32"/><polygon class="cls-3" points="157.53 235.98 157.53 275.33 118.21 275.33 118.21 235.98 157.34 235.98 157.53 235.98"/><polygon class="cls-3" points="157.34 196.66 157.34 235.98 118.21 235.98 117.99 235.98 117.99 196.66 157.34 196.66"/><rect class="cls-4" x="117.99" y="157.31" width="39.35" height="39.35"/><rect class="cls-4" x="117.99" y="117.99" width="39.35" height="39.32"/><rect class="cls-3" x="117.99" y="78.63" width="39.35" height="39.36"/><rect class="cls-3" x="117.99" y="39.31" width="39.35" height="39.31"/><rect class="cls-1" x="117.99" width="39.35" height="39.31"/><rect class="cls-1" x="78.85" y="275.33" width="39.36" height="39.32"/><polygon class="cls-3" points="118.21 235.98 118.21 275.33 78.86 275.33 78.86 235.98 117.99 235.98 118.21 235.98"/><polygon class="cls-3" points="117.99 196.66 117.99 235.98 78.86 235.98 78.67 235.98 78.67 196.66 117.99 196.66"/><rect class="cls-4" x="78.67" y="157.31" width="39.32" height="39.35"/><rect class="cls-4" x="78.67" y="117.99" width="39.32" height="39.32"/><rect class="cls-3" x="78.67" y="78.63" width="39.32" height="39.36"/><rect class="cls-3" x="78.67" y="39.31" width="39.32" height="39.31"/><rect class="cls-1" x="78.67" width="39.32" height="39.31"/><polygon class="cls-1" points="78.86 235.98 78.86 275.33 39.54 275.33 39.54 235.98 78.67 235.98 78.86 235.98"/><polygon class="cls-3" points="78.67 196.66 78.67 235.98 39.54 235.98 39.35 235.98 39.35 196.66 78.67 196.66"/><rect class="cls-3" x="39.35" y="157.31" width="39.32" height="39.35"/><rect class="cls-3" x="39.35" y="117.99" width="39.32" height="39.32"/><rect class="cls-3" x="39.35" y="78.63" width="39.32" height="39.36"/><rect class="cls-1" x="39.35" y="39.31" width="39.32" height="39.31"/><polygon class="cls-1" points="39.35 196.66 39.35 235.98 0.23 235.98 0 235.98 0 196.66 39.35 196.66"/><rect class="cls-1" y="157.31" width="39.35" height="39.35"/><rect class="cls-1" y="117.99" width="39.35" height="39.32"/><rect class="cls-1" y="78.63" width="39.35" height="39.36"/></g></g></svg>